<svg width="136" height="17" viewBox="0 0 136 17" fill="none" xmlns="http://www.w3.org/2000/svg">
<path d="M108.197 0H104.817V3.38006H108.197V0Z" fill="#D50E50"/>
<path d="M114.96 0H111.577V3.38276H114.96H118.34V6.76282H114.96H111.577V10.1456V13.5256H114.96V10.1456H118.34H121.72V6.76282V3.38276V0H118.34H114.96Z" fill="#D50E50"/>
<path d="M118.342 16.9082H121.722V13.5254H118.342H114.962V16.9082H118.342Z" fill="#D50E50"/>
<path d="M128.486 0H125.105V3.38276H128.486H131.868V0H128.486Z" fill="#D50E50"/>
<path d="M131.868 3.38428V6.76434H128.486H125.105V10.1471H128.486H131.868V13.5272H135.248V10.1471V6.76434V3.38428H131.868Z" fill="#D50E50"/>
<path d="M125.105 13.5254V16.9082H128.486H131.868V13.5254H128.486H125.105Z" fill="#D50E50"/>
<path d="M6.76587 6.76434V10.1471V13.5272V16.9099H10.1459V13.5272V10.1471V6.76434V3.38428H6.76587V6.76434Z" fill="white"/>
<path d="M3.38007 0H0V3.38276V6.76282V10.1456V13.5256V16.9084H3.38007V13.5256V10.1456V6.76282V3.38276H6.76283V0H3.38007Z" fill="white"/>
<path d="M16.9054 0H13.5254V3.38276V6.76282V10.1456V13.5256H16.9054V10.1456V6.76282V3.38276H20.2855V6.76282H23.6683V3.38276V0H20.2855H16.9054Z" fill="white"/>
<path d="M20.2856 16.9082H23.6683V13.5254H20.2856H16.9055V16.9082H20.2856Z" fill="white"/>
<path d="M40.5732 3.38276H43.9559V0H40.5732H37.1931V3.38276V6.76282V10.1456V13.5256V16.9084H40.5732H43.9559V13.5256H40.5732V10.1456H43.9559V6.76282H40.5732V3.38276Z" fill="white"/>
<path d="M47.3364 10.147H43.9563V13.527H47.3364V10.147Z" fill="white"/>
<path d="M47.3364 3.38428H43.9563V6.76434H47.3364V3.38428Z" fill="white"/>
<path d="M57.484 6.76434H54.1013V3.38428H50.7212V6.76434V10.1471V13.5272V16.9099H54.1013V13.5272V10.1471H57.484V13.5272V16.9099H60.8641V13.5272V10.1471V6.76434V3.38428H57.484V6.76434Z" fill="white"/>
<path d="M57.4806 0H54.1006V3.38006H57.4806V0Z" fill="white"/>
<path d="M71.0086 6.76282V10.1456V13.5256H67.6286V10.1456V6.76282V3.38276H71.0086V0H67.6286H64.2485V3.38276V6.76282V10.1456V13.5256V16.9084H67.6286H71.0086H74.3914V13.5256V10.1456V6.76282V3.38276H71.0086V6.76282Z" fill="white"/>
<path d="M84.5292 6.76434H81.1491V3.38428H77.7664V6.76434V10.1471V13.5272V16.9099H81.1491V13.5272V10.1471H84.5292V13.5272V16.9099H87.9119V13.5272V10.1471V6.76434V3.38428H84.5292V6.76434Z" fill="white"/>
<path d="M84.5304 0H81.1504V3.38006H84.5304V0Z" fill="white"/>
<path d="M98.0566 3.38428V6.76434V10.1471V13.5272V16.9099H101.439V13.5272V10.1471V6.76434V3.38428H98.0566Z" fill="white"/>
<path d="M94.6755 0H91.2927V3.38276V6.76282V10.1456V13.5256V16.9084H94.6755V13.5256V10.1456V6.76282V3.38276H98.0556V0H94.6755Z" fill="white"/>
<path d="M30.4309 3.38276V6.76282V10.1456V13.5256V16.9084H33.811V13.5256V10.1456V6.76282V3.38276V0H30.4309V3.38276Z" fill="white"/>
</svg>
