<svg width="120" height="15" viewBox="0 0 120 15" fill="none" xmlns="http://www.w3.org/2000/svg">
<path d="M95.4066 0H92.4261V2.98045H95.4066V0Z" fill="#D50E50"/>
<path d="M101.372 0H98.3892V2.98283H101.372H104.352V5.96329H101.372H98.3892V8.94612V11.9266H101.372V8.94612H104.352H107.333V5.96329V2.98283V0H104.352H101.372Z" fill="#D50E50"/>
<path d="M104.354 14.909H107.334V11.9261H104.354H101.373V14.909H104.354Z" fill="#D50E50"/>
<path d="M113.296 0H110.316V2.98283H113.296H116.279V0H113.296Z" fill="#D50E50"/>
<path d="M116.279 2.98364V5.9641H113.296H110.316V8.94693H113.296H116.279V11.9274H119.26V8.94693V5.9641V2.98364H116.279Z" fill="#D50E50"/>
<path d="M110.316 11.9261V14.909H113.296H116.279V11.9261H113.296H110.316Z" fill="#D50E50"/>
<path d="M5.9646 5.9641V8.94693V11.9274V14.9102H8.94505V11.9274V8.94693V5.9641V2.98364H5.9646V5.9641Z" fill="#1A1A1A"/>
<path d="M2.98046 0H0V2.98283V5.96329V8.94612V11.9266V14.9094H2.98046V11.9266V8.94612V5.96329V2.98283H5.96329V0H2.98046Z" fill="#1A1A1A"/>
<path d="M14.9061 0H11.9257V2.98283V5.96329V8.94612V11.9266H14.9061V8.94612V5.96329V2.98283H17.8866V5.96329H20.8694V2.98283V0H17.8866H14.9061Z" fill="#1A1A1A"/>
<path d="M17.8862 14.909H20.8691V11.9261H17.8862H14.9058V14.909H17.8862Z" fill="#1A1A1A"/>
<path d="M35.777 2.98283H38.7599V0H35.777H32.7966V2.98283V5.96329V8.94612V11.9266V14.9094H35.777H38.7599V11.9266H35.777V8.94612H38.7599V5.96329H35.777V2.98283Z" fill="#1A1A1A"/>
<path d="M41.7392 8.94666H38.7587V11.9271H41.7392V8.94666Z" fill="#1A1A1A"/>
<path d="M41.7392 2.98364H38.7587V5.9641H41.7392V2.98364Z" fill="#1A1A1A"/>
<path d="M50.687 5.9641H47.7042V2.98364H44.7238V5.9641V8.94693V11.9274V14.9102H47.7042V11.9274V8.94693H50.687V11.9274V14.9102H53.6675V11.9274V8.94693V5.9641V2.98364H50.687V5.9641Z" fill="#1A1A1A"/>
<path d="M50.6853 0H47.7048V2.98045H50.6853V0Z" fill="#1A1A1A"/>
<path d="M62.6119 5.96329V8.94612V11.9266H59.6315V8.94612V5.96329V2.98283H62.6119V0H59.6315H56.651V2.98283V5.96329V8.94612V11.9266V14.9094H59.6315H62.6119H65.5947V11.9266V8.94612V5.96329V2.98283H62.6119V5.96329Z" fill="#1A1A1A"/>
<path d="M74.537 5.9641H71.5566V2.98364H68.5737V5.9641V8.94693V11.9274V14.9102H71.5566V11.9274V8.94693H74.537V11.9274V14.9102H77.5199V11.9274V8.94693V5.9641V2.98364H74.537V5.9641Z" fill="#1A1A1A"/>
<path d="M74.5377 0H71.5573V2.98045H74.5377V0Z" fill="#1A1A1A"/>
<path d="M86.4641 2.98364V5.9641V8.94693V11.9274V14.9102H89.4469V11.9274V8.94693V5.9641V2.98364H86.4641Z" fill="#1A1A1A"/>
<path d="M83.4833 0H80.5004V2.98283V5.96329V8.94612V11.9266V14.9094H83.4833V11.9266V8.94612V5.96329V2.98283H86.4637V0H83.4833Z" fill="#1A1A1A"/>
<path d="M26.833 2.98283V5.96329V8.94612V11.9266V14.9094H29.8135V11.9266V8.94612V5.96329V2.98283V0H26.833V2.98283Z" fill="#1A1A1A"/>
</svg>
